PathFileType	4	(X/Y/Z)	1H_rest_med_left.trc
DataRate	CameraRate	NumFrames	NumMarkers	Units	OrigDataRate	OrigDataStartFrame	OrigNumFrames
250.00	250.00	14	18	mm	250.00	8805	23478
Frame#	Time	c7	r_should	l_should	clavicle	r_upa	r_elb_l	r_elb_m	r_low	r_wri_l	r_wri_m	r_met	l_upa	l_elb_l	l_elb_m	l_low	l_wri_l	l_wri_m	l_met
	X1	Y1	Z1	X2	Y2	Z2	X3	Y3	Z3	X4	Y4	Z4	X5	Y5	Z5	X6	Y6	Z6	X7	Y7	Z7	X8	Y8	Z8	X9	Y9	Z9	X10	Y10	Z10	X11	Y11	Z11	X12	Y12	Z12	X13	Y13	Z13	X14	Y14	Z14	X15	Y15	Z15	X16	Y16	Z16	X17	Y17	Z17	X18	Y18	Z18
8805	35.21600	649.71497	1421.36328	243.21400	699.87933	1363.50037	401.81644	699.54181	1362.40466	79.91180	770.41681	1275.02917	240.60443	692.37115	1160.71582	484.45557	686.02063	1073.36328	510.29944	631.93634	1036.87805	446.76224	739.19312	898.76593	498.61386	700.83380	812.13031	500.93848	763.07727	833.61353	469.95688	801.78461	756.97760	500.30023	693.41974	1169.35913	19.39178	704.60425	1060.18335	10.41496	657.80701	1025.12048	85.82973	714.88892	886.85974	-1.69241	736.80792	809.18463	18.33854	664.57703	795.92230	15.93712	752.23840	732.21490	-21.90176
8806	35.22000	649.61322	1421.34961	243.30592	699.79126	1363.44629	401.88593	699.41614	1362.45386	79.97635	770.30945	1275.00793	240.63599	692.36285	1160.67078	484.50708	686.03058	1073.30115	510.32590	631.95776	1036.81140	446.80804	739.29065	898.73553	498.53851	700.96088	812.10217	500.88275	763.17322	833.57294	469.84457	801.97046	757.00134	500.13608	693.25629	1169.42236	19.39659	704.40692	1060.25244	10.38462	657.62909	1025.19971	85.78616	714.69147	886.94531	-1.78753	736.62878	809.26996	18.20582	664.43146	796.03455	15.87290	752.00250	732.25763	-22.05310
8807	35.22400	649.51935	1421.35303	243.39009	699.70660	1363.39380	401.95148	699.29572	1362.50549	80.03493	770.20380	1274.98511	240.66602	692.36993	1160.62744	484.55618	686.05005	1073.24585	510.35120	631.98657	1036.76599	446.85849	739.39691	898.69733	498.45850	701.11047	812.09143	500.82742	763.27112	833.53235	469.73416	802.15833	757.02197	499.97501	693.10419	1169.48914	19.40209	704.22168	1060.32263	10.35464	657.50702	1025.29309	85.75154	714.51331	887.03217	-1.87234	736.46143	809.34808	18.07533	664.30023	796.16663	15.81544	751.78717	732.29480	-22.19726
8808	35.22800	649.42651	1421.35974	243.46967	699.62561	1363.35144	402.01074	699.17462	1362.56506	80.09245	770.10492	1274.96899	240.70592	692.36963	1160.58765	484.59201	686.06641	1073.19775	510.36740	632.01050	1036.71912	446.89029	739.50098	898.66138	498.38446	701.25934	812.07959	500.75592	763.37323	833.50970	469.62457	802.34637	757.05145	499.81528	692.95856	1169.56543	19.40694	704.05164	1060.40234	10.33657	657.39191	1025.39600	85.70801	714.34943	887.12860	-1.95140	736.30597	809.43738	17.93994	664.16003	796.31329	15.73895	751.58386	732.33240	-22.33566
8809	35.23200	649.33612	1421.37219	243.53848	699.53986	1363.31641	402.07297	699.06244	1362.63110	80.14825	770.00903	1274.96033	240.74663	692.34973	1160.54797	484.60971	686.06573	1073.14636	510.36240	632.02069	1036.67102	446.89517	739.60352	898.63763	498.30765	701.39886	812.05969	500.65875	763.48193	833.50439	469.49945	802.53058	757.09192	499.65842	692.82379	1169.65100	19.40862	703.89404	1060.48853	10.32658	657.21643	1025.50098	85.62783	714.19409	887.23206	-2.03401	736.15521	809.53729	17.79895	663.99670	796.45343	15.62347	751.39081	732.37653	-22.46750
8810	35.23600	649.25299	1421.39355	243.60378	699.45398	1363.28650	402.13318	698.95135	1362.69873	80.20438	769.92426	1274.96313	240.78629	692.31451	1160.49646	484.60727	686.04932	1073.08643	510.33932	632.01410	1036.61011	446.87482	739.70636	898.62183	498.23148	701.52820	812.03259	500.53824	763.60956	833.50159	469.39078	802.70905	757.13837	499.51236	692.69202	1169.73694	19.41158	703.74371	1060.58008	10.31325	656.97369	1025.57410	85.52246	714.04089	887.34167	-2.12189	736.01953	809.64075	17.66137	663.81445	796.56726	15.49358	751.20703	732.43140	-22.60824
8811	35.24000	649.16907	1421.40845	243.67932	699.36823	1363.25220	402.19019	698.84192	1362.75415	80.26895	769.84344	1274.97620	240.82158	692.26935	1160.42346	484.59451	686.02130	1073.01685	510.31668	631.99072	1036.52930	446.85114	739.81488	898.60986	498.15649	701.64777	811.98077	500.41437	763.74341	833.50372	469.29092	802.88611	757.17310	499.38181	692.56427	1169.82080	19.41477	703.59186	1060.67151	10.29653	656.71643	1025.60779	85.42648	713.89343	887.44861	-2.20605	735.89569	809.74133	17.53169	663.62439	796.64923	15.38202	751.02832	732.48254	-22.74558
8812	35.24400	649.08258	1421.40344	243.76338	699.27417	1363.20496	402.26126	698.72852	1362.79980	80.34389	769.76141	1274.98547	240.85664	692.21033	1160.34290	484.59729	685.98352	1072.94104	510.30481	631.97589	1036.43945	446.83432	739.91571	898.60248	498.09174	701.75525	811.90680	500.29492	763.87329	833.51678	469.19370	803.06146	757.21106	499.25616	692.43524	1169.89832	19.42561	703.43945	1060.75720	10.28229	656.46436	1025.62708	85.34430	713.73480	887.54974	-2.29069	735.76294	809.83350	17.41103	663.44067	796.71094	15.29445	750.84314	732.51984	-22.87516
8813	35.24800	648.98773	1421.38892	243.84550	699.16644	1363.15894	402.32928	698.61096	1362.84375	80.41707	769.67407	1274.99219	240.89450	692.14136	1160.27100	484.61252	685.93866	1072.87329	510.31470	631.96863	1036.35217	446.83356	740.00250	898.59393	498.03918	701.86188	811.84741	500.20450	763.99359	833.53284	469.10550	803.23004	757.25061	499.12888	692.30261	1169.97864	19.43998	703.27985	1060.83850	10.27221	656.22784	1025.66272	85.28246	713.58014	887.64447	-2.36791	735.62439	809.92285	17.30021	663.27539	796.77765	15.23004	750.65070	732.55011	-22.99883
8814	35.25200	648.87878	1421.38379	243.93883	699.04968	1363.11084	402.40274	698.49103	1362.89099	80.48886	769.57263	1274.99988	240.93246	692.08813	1160.22156	484.63803	685.90155	1072.82019	510.33582	631.95111	1036.28076	446.86038	740.08398	898.57935	497.98984	701.97131	811.82465	500.13995	764.11310	833.54480	469.02579	803.39862	757.28491	498.99765	692.16479	1170.05798	19.44793	703.11786	1060.91528	10.26421	656.04950	1025.72119	85.24087	713.43079	887.72986	-2.43954	735.49207	810.00684	17.18174	663.13519	796.85950	15.17750	750.45630	732.57959	-23.11554
8815	35.25600	648.77264	1421.38123	244.03975	698.93542	1363.06885	402.47098	698.38165	1362.94067	80.55146	769.46991	1274.99988	240.97556	692.05200	1160.19312	484.68039	685.87646	1072.78088	510.36203	631.94464	1036.22241	446.89310	740.15936	898.55798	497.93781	702.09088	811.82483	500.08804	764.22833	833.54248	468.93475	803.56287	757.31799	498.86304	692.02307	1170.13574	19.45455	702.96942	1060.99170	10.24981	655.94025	1025.80762	85.21564	713.28748	887.80670	-2.51476	735.35571	810.08252	17.06232	663.01929	796.97089	15.13543	750.25690	732.60474	-23.23884
8816	35.26000	648.67102	1421.38257	244.12929	698.82172	1363.03650	402.52899	698.28357	1362.99731	80.60302	769.36176	1274.99548	241.02068	692.01617	1160.16443	484.72086	685.84753	1072.74475	510.38718	631.95258	1036.17554	446.90646	740.22601	898.53979	497.88397	702.21942	811.83313	500.03183	764.34167	833.53772	468.84830	803.72717	757.35156	498.73135	691.89099	1170.21521	19.45712	702.83038	1061.07214	10.23506	655.24042	1026.01123	85.01955	713.15613	887.88898	-2.59385	735.21973	810.15686	16.94189	662.91577	797.09851	15.09123	750.05670	732.61963	-23.36565
8817	35.26400	648.57416	1421.39258	244.20158	698.70837	1363.00916	402.58231	698.18494	1363.05750	80.65382	769.24951	1274.99329	241.06343	691.95654	1160.13660	484.74515	685.80499	1072.71155	510.40213	631.94873	1036.13171	446.89722	740.28931	898.52081	497.82806	702.34985	811.83020	499.95020	764.44403	833.54572	468.75931	803.88354	757.38397	498.59851	691.76245	1170.30029	19.45606	702.69653	1061.15137	10.21894	653.75494	1026.33716	84.59955	713.03259	887.97229	-2.67589	735.08600	810.24146	16.81289	662.80255	797.22424	15.01891	749.86346	732.61945	-23.48308
8818	35.26800	648.48108	1421.40796	244.25444	698.59454	1362.98633	402.63300	698.08588	1363.12036	80.70149	769.13800	1274.98865	241.10339	691.87506	1160.09607	484.75806	685.75348	1072.66614	510.39548	631.93280	1036.08557	446.86646	740.35181	898.49744	497.76617	702.46790	811.80573	499.83707	764.54486	833.55389	468.66568	804.03735	757.41473	498.46106	691.63251	1170.38098	19.45497	702.57666	1061.23267	10.20092	653.28491	1026.46350	84.45087	712.91150	888.04913	-2.75487	734.96069	810.32556	16.68710	662.67047	797.32397	14.92070	749.67395	732.61725	-23.59748
